<mxfile host="app.diagrams.net" modified="2024-03-22T10:07:27.298Z" agent="Mozilla/5.0 (Macintosh; Intel Mac OS X 10_15_7) AppleWebKit/605.1.15 (KHTML, like Gecko) Version/17.4 Safari/605.1.15" etag="EqykEpBF8CYW_ZDhuz-m" version="24.0.7" type="device">
  <diagram name="Page-1" id="Kkh_E9vb97z3f2RRt2qf">
    <mxGraphModel dx="794" dy="464" grid="1" gridSize="10" guides="1" tooltips="1" connect="1" arrows="1" fold="1" page="1" pageScale="1" pageWidth="827" pageHeight="1169" math="0" shadow="0">
      <root>
        <mxCell id="0" />
        <mxCell id="1" parent="0" />
        <mxCell id="3V5p7vwm0wz2JWhElPhx-1" value="Image&amp;nbsp;&lt;div&gt;captioning&lt;/div&gt;" style="rounded=0;whiteSpace=wrap;html=1;fillColor=#f8cecc;strokeColor=default;strokeWidth=2;fontStyle=1" parent="1" vertex="1">
          <mxGeometry x="210" y="184" width="120" height="60" as="geometry" />
        </mxCell>
        <mxCell id="3V5p7vwm0wz2JWhElPhx-2" value="" style="shape=image;verticalLabelPosition=bottom;labelBackgroundColor=default;verticalAlign=top;aspect=fixed;imageAspect=0;image=https://upload.wikimedia.org/wikipedia/commons/thumb/a/a8/Tour_Eiffel_Wikimedia_Commons.jpg/640px-Tour_Eiffel_Wikimedia_Commons.jpg;opacity=80;imageBackground=none;imageBorder=default;strokeWidth=2;" parent="1" vertex="1">
          <mxGeometry x="248.38" y="90" width="43.24" height="80" as="geometry" />
        </mxCell>
        <mxCell id="3V5p7vwm0wz2JWhElPhx-3" value="Paris" style="text;html=1;align=center;verticalAlign=middle;whiteSpace=wrap;rounded=0;fontStyle=1" parent="1" vertex="1">
          <mxGeometry x="530" y="266" width="60" height="30" as="geometry" />
        </mxCell>
        <mxCell id="3V5p7vwm0wz2JWhElPhx-6" value="" style="shape=image;verticalLabelPosition=bottom;labelBackgroundColor=default;verticalAlign=top;aspect=fixed;imageAspect=0;image=data:image/png,iVBORw0KGgoAAAANSUhEUgAAAgAAAAIABAMAAAAGVsnJAAAABGdBTUEAALGPC/xhBQAAAAFzUkdCAK7OHOkAAAAodEVYdHN2ZzpiYXNlLXVyaQBmaWxlOi8vL3RtcC9tYWdpY2stb0d6aDhuTljeVWFtAAAAJXRFWHRkYXRlOm1vZGlmeQAyMDE3LTA5LTMwVDAwOjEwOjQyLTAzOjAw9ZOTigAAACV0RVh0ZGF0ZTpjcmVhdGUAMjAxNy0wOS0zMFQwMDoxMDo0Mi0wMzowMITOKzYAAAAJcEhZcwAAAEgAAABIAEbJaz4AAAAnUExURUdwTDAwMC8vLy8vLy8vLy8vLy8vLy8vLzAwMC8vLzAwMDAwMDAwMLX3vW4AAAAMdFJOUwD9BHsbozJIxGDa7aTsnz4AAAzMSURBVHja7Z3NjxTHGcZbtb277LEVAhb0odQMEHMixrFkeQ9jCwSGHNaBRErYwwB2sAKHDXYcJ+KA7SSy4j2sg634g0uARDnMxQFFsb2XElp22ak/Kv1Rs/0x1dXVPT073VvPT0hejWd6up95uqr6fd+qsiwAAAAAAAAAAAAAAAAAAAAAAAAAAAAAAAAAAAAAAAAAAAAAAAAAAAAAAAAAAAAAAAAAAAAAAAAAAAAAAAAAAAAAAAAAAAAAAAAAAAAAAAAAAAAAAAAAAAAAAAAAAAAAAAAAAAAAAEI8z3gJiNFXb//h79To67/M+QOTFbjBHZd/aO71d9Zdzp0NcwWYZdzHXTP1JiCv8lCAO6YagN5zQwUeGyvAYiTAUwgAASBAix9mKBxgsgDeOxdvGS3AV5wP1gwW4AhnjrthrgB00eGcuSepqQLY6+EF/NdUB5CZ8GmOPSGmOiB6nGVbxrYB+yIBts1pAwg1WwCaCWJLBSDag+MWOuD6e9RoB7zvpoPYUgGunfpMx0q0hQLM+oMe/lAtADnnv3Cp8FCnX2ujA5b9cZ+z3VUKML/uOG7yPdK29ItvvnuxfQLMB5fL3CWVAORC8JJbkOvwXcIHK60TQAx7HisdsOwWjw3tvuMLeVBXANKUBOqF8GzZM6IQoBM9HRyihUqy7a6uA7zTzXDATZ4d+Y8IQMLbxH+pF5x33g93JcqHnNQU4PlPvv+IZj1h0WYKMCMEWKGF3b97R0+Azqr/rn9lXvt112q0AK4vAPn844+kp0mXo+u+b2kJcN7ve51BL/nSwgf8fyuNF+CPfp/5rUqAx1oCkPDdqX7FXva/ZYM2WwBv3nUch58cW4C5kabX/1o33R030gHhgMDZzBeAaQkwDLpsZNuQlCRjPeFOSIBoQLA1tgMkg63+WGEY6ZNJ/QKIcCHvjekA8R08IcCx6MhOPR2Bff3qRBwQ3brS6o8qDkgIQBaiV/hKHc3gsU/4oRcmIYAYEclC5mM6YCiAW4sAwSlsd6ciAG+CADNhh/LQXAdcyXYxhjlA9FWa7ekedEDUo+oW6u0FBxAv9aGOm3uWe9cByU/ZQoAlYxxw9stbMgcsmeKAM+t88ILBDpjrM4c9R811wHmWCWub5oDl7HN0kxzgeXTSAkRPqMnnaLMcMPzgoNtEB8zdfbk3aQHEySViFM1xgP0G5z/s7roAzXHAb7jjyKvNmukAka7TFIBQT+0AYvfdMFnWHgd03qQ1OkB8THoezXTAmX+wIF2nKcDvPr7YVbcBJ3g28dxsBxz3O1T2UFeAc8zlj9QOEIc+2JY24HaQrvPvWC0B7L7js6R0QDR9TJrraKID7GDCZzCm1hLgR2GK6JmyF7g9JQEqOkAc6GlKgDDWIhMg/HWTmZ32O2AfS/+hdsCqmznd1jtg2GZvJAUg1069KxWArGf7w9Y7YFgslBSAvM2DWItEAFE1lPgOiQPutcsBEgEWXOa4W1QigJ0nAG/ALaDrAEILBKC/jWItZQSo4gCvNgFoOJZPOiAzYM8EkolaABK2dM7m5B1AaxKAnKb6DhArnSgEmBdlHHU4ILOwTlKAs19ezTiAeLSSAHO/+v6fvbQDXv/5L3MyZOQVzh9RpQDi0ANa0QF6t8CZdb69VskB1KJpAX7MuPMk5YAjbk5NV1DZ6498/6QUYHYYbKrogMQtYN891ZMLcGydOXyDpgR4/dRLVRww4x/JcU8mHEBWg5quJenngvubbVFaswByBwR22+pJBbghGtqEAGf8z/1FIxr6+Z9fSgpAI8GfkViA8AoCU+ToFsyOLBbA6Y7dBpwLQkMHpQIsi4Y2FiB4znIHK4UCfM1ddikpwKqo4IoFuOkErxyWtQLRuI/ftybogPgWCO3GehIB5lzxrbEA4XOWWzhv84gvqnOoGwuwU8EVtwHROUnz5LejNx+wanBAOKBQOSC6uOS6MjsC7DS0z+8IEBUMRvUdinK/e054zFiA+WEFV+wA8cSyZI30Q2KpF7a5Kw7Yx5KpEpkArBs7IDpr1tPJh8SDFF8AcYS1HQcMKyWE8kQiwLMaHGD//l21A4aHDsJuNOOA2aEAOw4Y/n5r4aHfVOdD4kFKQgBbJsDxn7zcrShAgQPm3uCDXyh7AeunsQD23XBthlEBFrK1iP6D5vwHfJAzVYvMZjzEe8dHHODFAiz0OXs0GQd8ylg4VSh/HJAMvPr94fbKqAA8dkBCgEXHb8J7SgF2fp0CBywyv2v5mbgRaJ0OWOD+kYKpQgoHxAIcDc7jiaYDgnK/vO5AIoDCAf4N48YNK63VAReYeHRUtAGxAMth3HGNajkgLPdztmpwAD0f/j8ncNO1v/77b3U6YHHY1eb3ArEAUa/vPiRaDlhWdAflHCAud/h0sN2r0QHLbuoPtQPEHL1nRMsBfTe/2q2kA8RZ3gnmibpOcMfW5QDSd1PfoXbAPpb6DrUDRsca1R2wKiY0Rb1nMLmvLgdkBVA6YBh43dJyQFkBVA4YCmCdYMm4/oQdMPod5/ME2B0HsP8IV7r3d8UBtxvoAHFy+63pOODEtB1AxMkdsKbTBpxvigOeWlPpBeAAOAAOMMoBDewFxMmx/dZ0xgHTd8BwIGSsA6oMhfdSG1DpYWgv9ALpx2HnoDUdB+Q/Dk/aAamACC8ZEBmUCYio4wG5ARFpRKhkQETlgCgkxqqFxNQRoXvpkJjaAbkhMWlESEjaGz8mKIKiYZaUEErqjAlmgqK8WlBU6oArijUlyjlgvLC4UyYsXpAXyAuLyxzg6YTFE4kRZV5g3v/zEZlIZuhTnkyMFDggLzEizwwtBt/e002NKR3gjZEaK8gMzV1OpsZYtdSYPDOkSI0NJ4tt6uYGafXk6KBMclTaC6STo0SdHdZLjqrS452a0+PjV4go0uNHRrLD4qwj6ys2bZsJCiS2ZAUStk6BxE39AonC+gBSVB+gUyCxULZAwvs6XOZTUiITO+Bmdkph3IaIQen9XXHAREpkrI60SMpvFfSLpLhWkVQNVWJFRVIsXSTFtIqkcsvkOjplcp5+mZwzfp1gUZmcs+TFbQA56nKmUSbnN6heplDS/88PSLJS9Ih/nvJCSTKhQsmcOsFObqHk3GihJK1YKGnZUalsolKU5JfKeq9wplcqe5jWUCtMaE6pLJGUypISO3amy+XDYulUtXj+BzsTKZbOqxbPzKOfTLF0UHVO09XiinJ5S7Ncnm1Oer5AfeXy5WaMREYrmjDBy02YqDJfoL4JE3XPGQqnzDxHJ++Aps4ZsnInTdU4X6Axs8ZKTZvz8qbNtXjmqHziJCk5cbLFM0fFgQ6MN3W2vW1AtN4DLzV5OnltLZw3ONb0+U4wfd5/8NhDDggXUAieDrQECDbd4N8S5foBIuawabXEAaTcEhpvSZfQSK4gMa0lNKqvI1TDIip8dBEVWWanmavIlFxGx5Ito5N0AJnSMjqNWUmKTGkhpeasJLUrS2mNLqbWoNXk7MkvpiZZTq9Bq8nlRjYmuqBik9YT9LzJCzCypKZpa4oGi6ryrcTHjFtX+Mw6P5xcVte4dYWzCyubt7I0oamltc1zQKazGTrgpDEOyOZ8+jw3K743HZBzKl3LUAdMdYsNZvomK7wZ2+z4R9rqmusAay7YaIkY7ABqX7+qu91aKQGKt9pijdhqSyyzVb8AxZutVXWA2IFQt+8qHhtpv7OUAMXb7bGq2+15fZfXut3eZAQo3HCRN2TDxUkJcLxoy01NB0S7C6Yu9yhrw5abwaarqYRQxTZAuukqb/6mq7Vtu0taue1u0EWRvHu05MbL9ipv0cbLYvwTLsNT09bbRLL1NpnK1ts6m6+L7n9beXplN18np5ux/fxRJtouhQCi+3+iPGG77/it+EFLUwD/927E9VvzLJ5UkSeAFXb/qTZbQlAxEEwe0nRAY1h2eFgYohJgfp05btE2ruSLb7570WqfALOibFwlgPW2P0i5VGjZ069ZLRTAet/lD2iBANa1U59pPIGF/1onAD37Hi0UIDfLlzcgaJMANN0eSwUgHt2zAmTnJ8gdoK9n+wQofFY3TAAxyb9qaKL1AgyDFU+IqQ4QI//9pjrAvwInWnjeVAGsGe4PfDcsYx1geV/5TzVrBgtgkXcu3rKMFoCWmbu5BwXI3S/ZGAHG60QgAASAAEYLcM/NxpkN41WeXTPGMKJMg7tmrADh/r3OhmUuN7jjsg8NFsC+zPkDSk1WIFqfxVyIR4nRAuhnUQAAAAAAAAAAAAAAAAAAAAAAAAAAAAAAAAAAAAAAAAAAAAAAAAAAAAAAAAAAAAAAAAAAAAAAAAAAAAAAAAAAAAAAAAAAAAAAAAAAAAAAAAAAAAAAAAAAAAAAAAAAAAAAAAAAAABAw/g/DeNj5Q8nTPIAAAAASUVORK5CYII=;clipPath=inset(30% 1.67% 29.67% 2%);strokeWidth=2;" parent="1" vertex="1">
          <mxGeometry x="524.1700000000001" y="150" width="71.65" height="30" as="geometry" />
        </mxCell>
        <mxCell id="3V5p7vwm0wz2JWhElPhx-5" value="&quot;&lt;i&gt;What is the capital of France?&lt;/i&gt;&quot;" style="text;html=1;align=center;verticalAlign=middle;whiteSpace=wrap;rounded=0;fontSize=12;" parent="1" vertex="1">
          <mxGeometry x="505" y="110" width="110" height="30" as="geometry" />
        </mxCell>
        <mxCell id="_qLHEe8S4mwUqHedYTGQ-1" value="Image&lt;div&gt;generation&lt;/div&gt;" style="rounded=0;whiteSpace=wrap;html=1;fillColor=#d5e8d4;strokeColor=default;strokeWidth=2;fontStyle=1" vertex="1" parent="1">
          <mxGeometry x="354" y="140" width="120" height="60" as="geometry" />
        </mxCell>
        <mxCell id="_qLHEe8S4mwUqHedYTGQ-3" value="&quot;&lt;i style=&quot;font-size: 12px;&quot;&gt;An image of the Tour Eiffel&lt;/i&gt;&quot;" style="text;html=1;align=center;verticalAlign=middle;whiteSpace=wrap;rounded=0;fontSize=12;strokeWidth=2;" vertex="1" parent="1">
          <mxGeometry x="220" y="260" width="100" height="40" as="geometry" />
        </mxCell>
        <mxCell id="_qLHEe8S4mwUqHedYTGQ-5" value="Audio query answering" style="rounded=0;whiteSpace=wrap;html=1;fillColor=#dae8fc;strokeColor=default;strokeWidth=2;fontStyle=1" vertex="1" parent="1">
          <mxGeometry x="500" y="194" width="120" height="60" as="geometry" />
        </mxCell>
        <mxCell id="_qLHEe8S4mwUqHedYTGQ-6" value="" style="shape=image;verticalLabelPosition=bottom;labelBackgroundColor=default;verticalAlign=top;aspect=fixed;imageAspect=0;image=https://upload.wikimedia.org/wikipedia/commons/thumb/a/a8/Tour_Eiffel_Wikimedia_Commons.jpg/640px-Tour_Eiffel_Wikimedia_Commons.jpg;opacity=80;imageBackground=none;imageBorder=default;strokeWidth=2;" vertex="1" parent="1">
          <mxGeometry x="392" y="216" width="43.24" height="80" as="geometry" />
        </mxCell>
        <mxCell id="_qLHEe8S4mwUqHedYTGQ-7" value="&quot;&lt;i style=&quot;font-size: 12px;&quot;&gt;An image of the Tour Eiffel&lt;/i&gt;&quot;" style="text;html=1;align=center;verticalAlign=middle;whiteSpace=wrap;rounded=0;fontSize=12;strokeWidth=2;" vertex="1" parent="1">
          <mxGeometry x="364" y="86" width="100" height="40" as="geometry" />
        </mxCell>
      </root>
    </mxGraphModel>
  </diagram>
</mxfile>
